<?xml version="1.0" encoding="UTF-8"?>
<svg xmlns="http://www.w3.org/2000/svg" xmlns:xlink="http://www.w3.org/1999/xlink" viewBox="0 0 30 30" width="30px" height="30px">
<g id="surface39645828">
<path style=" stroke:none;fill-rule:nonzero;fill:rgb(90.588236%,29.803923%,23.529412%);fill-opacity:1;" d="M 15 3 C 11.6875 3 9 5.6875 9 9 L 9 10 C 9 13.3125 11.6875 16 15 16 C 18.3125 16 21 13.3125 21 10 L 21 9 C 21 5.6875 18.3125 3 15 3 Z M 11.097656 19.550781 C 8.164062 20.320312 5.394531 21.765625 4.371094 23.09375 C 3.460938 24.28125 4.328125 26 5.828125 26 L 24.171875 26 C 25.667969 26 26.539062 24.277344 25.625 23.089844 C 24.605469 21.761719 21.835938 20.320312 18.902344 19.554688 C 17.851562 20.453125 16.492188 21 15 21 C 13.507812 21 12.148438 20.453125 11.097656 19.554688 Z M 11.097656 19.550781 "/>
</g>
</svg>
