<svg id="SvgjsSvg1021" width="288" height="288" xmlns="http://www.w3.org/2000/svg" version="1.1" xmlns:xlink="http://www.w3.org/1999/xlink" xmlns:svgjs="http://svgjs.com/svgjs"><defs id="SvgjsDefs1022"></defs><g id="SvgjsG1023"><svg xmlns="http://www.w3.org/2000/svg" fill="currentColor" style="width:1em;height:1em;vertical-align:middle" class="svg-icon" overflow="hidden" viewBox="0 0 1024 1024" width="288" height="288"><path d="M959.68 921.024c-15.232-181.696-139.648-331.968-307.84-386.624 70.464-45.632 117.248-124.48 117.248-214.464C769.152 178.624 654.208 64 512.512 64 370.752 64 255.808 178.624 255.808 319.936c0 89.984 46.784 168.832 117.248 214.528-168.192 54.592-292.544 204.864-307.84 386.56-0.192 3.456-0.64 5.44 0 10.176C66.496 947.2 80.64 960 96.704 960c17.92 0 32.064-14.656 32.064-32 16.704-197.76 182.272-351.936 383.744-351.936 201.408 0 366.976 154.176 383.68 351.936 0 17.344 14.144 32 32.064 32 16.064 0 30.208-12.8 31.424-28.8C960.32 926.464 959.936 924.416 959.68 921.024zM320 319.936C320 213.952 406.208 128 512.512 128s192.448 85.952 192.448 191.936c0 106.048-86.144 192-192.448 192S320 425.984 320 319.936z" fill="#52cc99" class="color000 svgShape"></path></svg></g></svg>